<?xml version="1.0" encoding="UTF-8"?>
<svg width="119px" height="133px" viewBox="0 0 119 133" version="1.1" xmlns="http://www.w3.org/2000/svg" xmlns:xlink="http://www.w3.org/1999/xlink">
    <!-- Generator: Sketch 50.2 (55047) - http://www.bohemiancoding.com/sketch -->
    <title>Shape</title>
    <desc>Created with Sketch.</desc>
    <defs></defs>
    <g id="Page-1" stroke="none" stroke-width="1" fill="none" fill-rule="evenodd">
        <g id="Prototype" transform="translate(-215.000000, -51.000000)" fill="#000000" fill-rule="nonzero">
            <g id="baseline-assignment-24px" transform="translate(195.000000, 44.000000)">
                <path d="M125.777778,20.3 C125.777778,20.3 116.566296,20.3 98.1433333,20.3 C95.3666667,12.586 88.0944444,7 79.5,7 C70.9055556,7 63.6333333,12.586 60.8566667,20.3 L33.2222222,20.3 C25.95,20.3 20,26.285 20,33.6 L20,126.7 C20,134.015 25.95,140 33.2222222,140 L125.777778,140 C133.05,140 139,134.015 139,126.7 L139,33.6 C139,26.285 133.05,20.3 125.777778,20.3 Z M79.5,20.3 C83.1361111,20.3 86.1111111,23.2925 86.1111111,26.95 C86.1111111,30.6075 83.1361111,33.6 79.5,33.6 C75.8638889,33.6 72.8888889,30.6075 72.8888889,26.95 C72.8888889,23.2925 75.8638889,20.3 79.5,20.3 Z M92.7222222,113.4 L46.4444444,113.4 L46.4444444,100.1 L92.7222222,100.1 L92.7222222,113.4 Z M112.555556,86.8 L46.4444444,86.8 L46.4444444,73.5 L112.555556,73.5 L112.555556,86.8 Z M112.555556,60.2 L46.4444444,60.2 L46.4444444,46.9 L112.555556,46.9 L112.555556,60.2 Z" id="Shape"></path>
            </g>
        </g>
    </g>
</svg>